<svg width="18" height="24" xmlns="http://www.w3.org/2000/svg" xmlns:xlink="http://www.w3.org/1999/xlink"><defs><path d="M17.553 19.092a4.1 4.1 0 0 0-1.287-1.083l-3.685-1.959c-.565-.3-.949-.889-1.016-1.56l-.053-.53c-.047-.475.046-.96.308-1.345a4.013 4.013 0 0 0 .673-1.832l.069-.643c.531 0 .987-.403 1.088-.961l.194-1.08c.101-.566-.193-1.129-.698-1.331l-.212-.087.197-1.84C13.38 2.518 11.68.48 9.495.48H8.219c-2.187 0-3.885 2.038-3.637 4.361l.199 1.84-.213.087c-.506.202-.8.765-.697 1.331l.193 1.08c.101.558.557.961 1.088.961l.07.643c.072.685.314 1.308.672 1.832.26.384.355.87.308 1.343l-.054.532c-.066.671-.449 1.26-1.015 1.56l-3.685 1.96c-.5.265-.934.636-1.288 1.082 0 0 2.3 4.117 8.698 4.117 6.397 0 8.695-4.117 8.695-4.117" id="a"/></defs><use fill="#455065" xlink:href="#a" fill-rule="evenodd"/></svg>